<mxfile host="app.diagrams.net" agent="Mozilla/5.0 (Macintosh; Intel Mac OS X 10_15_7) AppleWebKit/537.36 (KHTML, like Gecko) Chrome/130.0.0.0 Safari/537.36" version="25.0.3">
  <diagram name="Page-1" id="vQpCN99se6RY1JwRaNdB">
    <mxGraphModel dx="1147" dy="698" grid="1" gridSize="10" guides="1" tooltips="1" connect="1" arrows="1" fold="1" page="1" pageScale="1" pageWidth="827" pageHeight="1169" math="0" shadow="0">
      <root>
        <mxCell id="0" />
        <mxCell id="1" parent="0" />
        <mxCell id="wdYPvI-SBcWnIzaSaqyT-14" style="edgeStyle=orthogonalEdgeStyle;rounded=0;orthogonalLoop=1;jettySize=auto;html=1;exitX=0.5;exitY=1;exitDx=0;exitDy=0;entryX=0.5;entryY=0;entryDx=0;entryDy=0;" edge="1" parent="1" source="wdYPvI-SBcWnIzaSaqyT-1" target="wdYPvI-SBcWnIzaSaqyT-2">
          <mxGeometry relative="1" as="geometry" />
        </mxCell>
        <mxCell id="wdYPvI-SBcWnIzaSaqyT-1" value="Start" style="rounded=1;whiteSpace=wrap;html=1;" vertex="1" parent="1">
          <mxGeometry x="340" y="70" width="120" height="60" as="geometry" />
        </mxCell>
        <mxCell id="wdYPvI-SBcWnIzaSaqyT-15" style="edgeStyle=orthogonalEdgeStyle;rounded=0;orthogonalLoop=1;jettySize=auto;html=1;exitX=0.5;exitY=1;exitDx=0;exitDy=0;entryX=0.5;entryY=0;entryDx=0;entryDy=0;" edge="1" parent="1" source="wdYPvI-SBcWnIzaSaqyT-2" target="wdYPvI-SBcWnIzaSaqyT-5">
          <mxGeometry relative="1" as="geometry" />
        </mxCell>
        <mxCell id="wdYPvI-SBcWnIzaSaqyT-2" value="Input: When did you wake up?" style="shape=parallelogram;perimeter=parallelogramPerimeter;whiteSpace=wrap;html=1;fixedSize=1;" vertex="1" parent="1">
          <mxGeometry x="340" y="160" width="120" height="60" as="geometry" />
        </mxCell>
        <mxCell id="wdYPvI-SBcWnIzaSaqyT-17" style="edgeStyle=orthogonalEdgeStyle;rounded=0;orthogonalLoop=1;jettySize=auto;html=1;exitX=0.5;exitY=1;exitDx=0;exitDy=0;entryX=0.5;entryY=0;entryDx=0;entryDy=0;" edge="1" parent="1" source="wdYPvI-SBcWnIzaSaqyT-3" target="wdYPvI-SBcWnIzaSaqyT-4">
          <mxGeometry relative="1" as="geometry" />
        </mxCell>
        <mxCell id="wdYPvI-SBcWnIzaSaqyT-20" value="No" style="edgeLabel;html=1;align=center;verticalAlign=middle;resizable=0;points=[];" vertex="1" connectable="0" parent="wdYPvI-SBcWnIzaSaqyT-17">
          <mxGeometry x="-0.25" relative="1" as="geometry">
            <mxPoint as="offset" />
          </mxGeometry>
        </mxCell>
        <mxCell id="wdYPvI-SBcWnIzaSaqyT-18" style="edgeStyle=orthogonalEdgeStyle;rounded=0;orthogonalLoop=1;jettySize=auto;html=1;exitX=0;exitY=0.5;exitDx=0;exitDy=0;entryX=0.5;entryY=0;entryDx=0;entryDy=0;" edge="1" parent="1" source="wdYPvI-SBcWnIzaSaqyT-3" target="wdYPvI-SBcWnIzaSaqyT-6">
          <mxGeometry relative="1" as="geometry" />
        </mxCell>
        <mxCell id="wdYPvI-SBcWnIzaSaqyT-19" value="Yes" style="edgeLabel;html=1;align=center;verticalAlign=middle;resizable=0;points=[];" vertex="1" connectable="0" parent="wdYPvI-SBcWnIzaSaqyT-18">
          <mxGeometry x="-0.2148" y="-1" relative="1" as="geometry">
            <mxPoint as="offset" />
          </mxGeometry>
        </mxCell>
        <mxCell id="wdYPvI-SBcWnIzaSaqyT-3" value="Before 8:30am?" style="rhombus;whiteSpace=wrap;html=1;" vertex="1" parent="1">
          <mxGeometry x="360" y="360" width="80" height="80" as="geometry" />
        </mxCell>
        <mxCell id="wdYPvI-SBcWnIzaSaqyT-29" style="edgeStyle=orthogonalEdgeStyle;rounded=0;orthogonalLoop=1;jettySize=auto;html=1;exitX=1;exitY=0.5;exitDx=0;exitDy=0;entryX=1;entryY=0.5;entryDx=0;entryDy=0;" edge="1" parent="1" source="wdYPvI-SBcWnIzaSaqyT-4" target="wdYPvI-SBcWnIzaSaqyT-12">
          <mxGeometry relative="1" as="geometry">
            <Array as="points">
              <mxPoint x="620" y="510" />
              <mxPoint x="620" y="1040" />
            </Array>
          </mxGeometry>
        </mxCell>
        <mxCell id="wdYPvI-SBcWnIzaSaqyT-4" value="You will not catch&lt;span style=&quot;background-color: initial;&quot;&gt;&amp;nbsp;the train!&lt;/span&gt;" style="shape=parallelogram;perimeter=parallelogramPerimeter;whiteSpace=wrap;html=1;fixedSize=1;" vertex="1" parent="1">
          <mxGeometry x="340" y="480" width="120" height="60" as="geometry" />
        </mxCell>
        <mxCell id="wdYPvI-SBcWnIzaSaqyT-16" style="edgeStyle=orthogonalEdgeStyle;rounded=0;orthogonalLoop=1;jettySize=auto;html=1;exitX=0.5;exitY=1;exitDx=0;exitDy=0;entryX=0.5;entryY=0;entryDx=0;entryDy=0;" edge="1" parent="1" source="wdYPvI-SBcWnIzaSaqyT-5" target="wdYPvI-SBcWnIzaSaqyT-3">
          <mxGeometry relative="1" as="geometry" />
        </mxCell>
        <mxCell id="wdYPvI-SBcWnIzaSaqyT-5" value="check Input" style="rounded=0;whiteSpace=wrap;html=1;" vertex="1" parent="1">
          <mxGeometry x="340" y="260" width="120" height="60" as="geometry" />
        </mxCell>
        <mxCell id="wdYPvI-SBcWnIzaSaqyT-21" style="edgeStyle=orthogonalEdgeStyle;rounded=0;orthogonalLoop=1;jettySize=auto;html=1;exitX=0.5;exitY=1;exitDx=0;exitDy=0;entryX=0.5;entryY=0;entryDx=0;entryDy=0;" edge="1" parent="1" source="wdYPvI-SBcWnIzaSaqyT-6" target="wdYPvI-SBcWnIzaSaqyT-7">
          <mxGeometry relative="1" as="geometry" />
        </mxCell>
        <mxCell id="wdYPvI-SBcWnIzaSaqyT-6" value="Input: When did you finish breakfast?" style="shape=parallelogram;perimeter=parallelogramPerimeter;whiteSpace=wrap;html=1;fixedSize=1;" vertex="1" parent="1">
          <mxGeometry x="110" y="480" width="120" height="60" as="geometry" />
        </mxCell>
        <mxCell id="wdYPvI-SBcWnIzaSaqyT-22" style="edgeStyle=orthogonalEdgeStyle;rounded=0;orthogonalLoop=1;jettySize=auto;html=1;exitX=0.5;exitY=1;exitDx=0;exitDy=0;entryX=0.5;entryY=0;entryDx=0;entryDy=0;" edge="1" parent="1" source="wdYPvI-SBcWnIzaSaqyT-7" target="wdYPvI-SBcWnIzaSaqyT-8">
          <mxGeometry relative="1" as="geometry" />
        </mxCell>
        <mxCell id="wdYPvI-SBcWnIzaSaqyT-7" value="check Input" style="rounded=0;whiteSpace=wrap;html=1;" vertex="1" parent="1">
          <mxGeometry x="110" y="610" width="120" height="60" as="geometry" />
        </mxCell>
        <mxCell id="wdYPvI-SBcWnIzaSaqyT-23" style="edgeStyle=orthogonalEdgeStyle;rounded=0;orthogonalLoop=1;jettySize=auto;html=1;exitX=1;exitY=0.5;exitDx=0;exitDy=0;" edge="1" parent="1" source="wdYPvI-SBcWnIzaSaqyT-8" target="wdYPvI-SBcWnIzaSaqyT-9">
          <mxGeometry relative="1" as="geometry" />
        </mxCell>
        <mxCell id="wdYPvI-SBcWnIzaSaqyT-25" value="Yes" style="edgeLabel;html=1;align=center;verticalAlign=middle;resizable=0;points=[];" vertex="1" connectable="0" parent="wdYPvI-SBcWnIzaSaqyT-23">
          <mxGeometry x="-0.42" y="-2" relative="1" as="geometry">
            <mxPoint as="offset" />
          </mxGeometry>
        </mxCell>
        <mxCell id="wdYPvI-SBcWnIzaSaqyT-24" style="edgeStyle=orthogonalEdgeStyle;rounded=0;orthogonalLoop=1;jettySize=auto;html=1;exitX=0.5;exitY=1;exitDx=0;exitDy=0;entryX=0.5;entryY=0;entryDx=0;entryDy=0;" edge="1" parent="1" source="wdYPvI-SBcWnIzaSaqyT-8" target="wdYPvI-SBcWnIzaSaqyT-10">
          <mxGeometry relative="1" as="geometry" />
        </mxCell>
        <mxCell id="wdYPvI-SBcWnIzaSaqyT-26" value="No" style="edgeLabel;html=1;align=center;verticalAlign=middle;resizable=0;points=[];" vertex="1" connectable="0" parent="wdYPvI-SBcWnIzaSaqyT-24">
          <mxGeometry x="-0.1714" y="2" relative="1" as="geometry">
            <mxPoint as="offset" />
          </mxGeometry>
        </mxCell>
        <mxCell id="wdYPvI-SBcWnIzaSaqyT-8" value="Before 10am?" style="rhombus;whiteSpace=wrap;html=1;" vertex="1" parent="1">
          <mxGeometry x="130" y="740" width="80" height="80" as="geometry" />
        </mxCell>
        <mxCell id="wdYPvI-SBcWnIzaSaqyT-27" style="edgeStyle=orthogonalEdgeStyle;rounded=0;orthogonalLoop=1;jettySize=auto;html=1;exitX=0.5;exitY=1;exitDx=0;exitDy=0;entryX=0.5;entryY=0;entryDx=0;entryDy=0;" edge="1" parent="1" source="wdYPvI-SBcWnIzaSaqyT-9" target="wdYPvI-SBcWnIzaSaqyT-12">
          <mxGeometry relative="1" as="geometry" />
        </mxCell>
        <mxCell id="wdYPvI-SBcWnIzaSaqyT-9" value="You will catch the train!" style="shape=parallelogram;perimeter=parallelogramPerimeter;whiteSpace=wrap;html=1;fixedSize=1;" vertex="1" parent="1">
          <mxGeometry x="340" y="890" width="120" height="60" as="geometry" />
        </mxCell>
        <mxCell id="wdYPvI-SBcWnIzaSaqyT-28" style="edgeStyle=orthogonalEdgeStyle;rounded=0;orthogonalLoop=1;jettySize=auto;html=1;exitX=0.5;exitY=1;exitDx=0;exitDy=0;entryX=0;entryY=0.5;entryDx=0;entryDy=0;" edge="1" parent="1" source="wdYPvI-SBcWnIzaSaqyT-10" target="wdYPvI-SBcWnIzaSaqyT-12">
          <mxGeometry relative="1" as="geometry" />
        </mxCell>
        <mxCell id="wdYPvI-SBcWnIzaSaqyT-10" value="You will not catch the train!" style="shape=parallelogram;perimeter=parallelogramPerimeter;whiteSpace=wrap;html=1;fixedSize=1;" vertex="1" parent="1">
          <mxGeometry x="110" y="890" width="120" height="60" as="geometry" />
        </mxCell>
        <mxCell id="wdYPvI-SBcWnIzaSaqyT-11" value="End" style="rounded=1;whiteSpace=wrap;html=1;" vertex="1" parent="1">
          <mxGeometry x="340" y="1230" width="120" height="60" as="geometry" />
        </mxCell>
        <mxCell id="wdYPvI-SBcWnIzaSaqyT-30" style="edgeStyle=orthogonalEdgeStyle;rounded=0;orthogonalLoop=1;jettySize=auto;html=1;exitX=0.5;exitY=1;exitDx=0;exitDy=0;entryX=0.5;entryY=0;entryDx=0;entryDy=0;" edge="1" parent="1" source="wdYPvI-SBcWnIzaSaqyT-12" target="wdYPvI-SBcWnIzaSaqyT-13">
          <mxGeometry relative="1" as="geometry" />
        </mxCell>
        <mxCell id="wdYPvI-SBcWnIzaSaqyT-12" value="Disable input fields" style="rounded=0;whiteSpace=wrap;html=1;" vertex="1" parent="1">
          <mxGeometry x="340" y="1010" width="120" height="60" as="geometry" />
        </mxCell>
        <mxCell id="wdYPvI-SBcWnIzaSaqyT-31" style="edgeStyle=orthogonalEdgeStyle;rounded=0;orthogonalLoop=1;jettySize=auto;html=1;exitX=0.5;exitY=1;exitDx=0;exitDy=0;entryX=0.5;entryY=0;entryDx=0;entryDy=0;" edge="1" parent="1" source="wdYPvI-SBcWnIzaSaqyT-13" target="wdYPvI-SBcWnIzaSaqyT-11">
          <mxGeometry relative="1" as="geometry" />
        </mxCell>
        <mxCell id="wdYPvI-SBcWnIzaSaqyT-13" value="Show Reset button" style="rounded=0;whiteSpace=wrap;html=1;" vertex="1" parent="1">
          <mxGeometry x="340" y="1120" width="120" height="60" as="geometry" />
        </mxCell>
      </root>
    </mxGraphModel>
  </diagram>
</mxfile>
